<?xml version="1.0" encoding="UTF-8" standalone="no"?>
<!-- Created with Inkscape (http://www.inkscape.org/) -->

<svg
   width="131.8279mm"
   height="118.13276mm"
   viewBox="0 0 131.82789 118.13276"
   version="1.1"
   id="svg5"
   xml:space="preserve"
   sodipodi:docname="favicon.svg"
   inkscape:version="1.2.2 (b0a8486541, 2022-12-01)"
   xmlns:inkscape="http://www.inkscape.org/namespaces/inkscape"
   xmlns:sodipodi="http://sodipodi.sourceforge.net/DTD/sodipodi-0.dtd"
   xmlns="http://www.w3.org/2000/svg"
   xmlns:svg="http://www.w3.org/2000/svg"><sodipodi:namedview
     id="namedview6"
     pagecolor="#ffffff"
     bordercolor="#000000"
     borderopacity="0.25"
     inkscape:showpageshadow="2"
     inkscape:pageopacity="0.0"
     inkscape:pagecheckerboard="0"
     inkscape:deskcolor="#d1d1d1"
     inkscape:document-units="mm"
     showgrid="false"
     inkscape:zoom="1.6493661"
     inkscape:cx="247.6709"
     inkscape:cy="311.63487"
     inkscape:window-width="3440"
     inkscape:window-height="1371"
     inkscape:window-x="0"
     inkscape:window-y="32"
     inkscape:window-maximized="1"
     inkscape:current-layer="svg5" /><defs
     id="defs2" /><g
     id="layer1"
     transform="translate(-53.560426,-123.15341)"><path
       id="path856"
       style="fill:#000000;stroke-width:0.275046"
       d="m 93.673227,123.15344 c -1.583901,0.002 -3.172208,0.14189 -4.237984,0.41806 -5.190368,1.34496 -9.48809,5.55133 -11.221021,10.98228 -0.476668,1.49387 -0.632908,2.72668 -0.696598,5.50095 l -0.08217,3.5755 -2.980179,3.02927 c -6.593123,6.70249 -12.520547,15.68608 -15.902389,24.10085 -1.26399,3.1451 -2.851451,8.44689 -3.530017,11.78895 -2.178259,10.7282 -1.90515,24.12163 0.698665,34.24339 1.090016,4.23717 2.1092,6.89152 3.023072,7.87548 l 0.726053,0.78187 4.648812,-0.17518 c 10.024351,-0.37848 16.411147,1.31606 30.754712,8.1597 9.850167,4.69978 17.638297,7.07318 25.241877,7.69307 10.22061,0.83325 24.68185,-1.74906 26.19633,-4.67775 0.61583,-1.19088 0.49611,-3.16146 -0.41083,-6.75256 -1.06215,-4.20556 -2.53129,-8.08553 -5.54281,-14.63993 -3.78421,-8.23612 -5.66459,-13.16474 -5.41311,-14.18776 0.0662,-0.26919 0.80334,-0.20593 3.2489,0.27957 7.73068,1.53469 15.90562,2.10095 21.49843,1.48879 9.76941,-1.06924 17.42651,-4.93027 22.00176,-11.09441 4.37302,-5.89174 4.89069,-11.03096 1.40508,-13.94902 -0.56953,-0.47679 -2.61258,-1.72471 -4.54029,-2.77347 -6.52771,-3.55139 -9.87205,-6.04022 -13.27981,-9.88312 -2.34259,-2.64171 -3.3007,-4.18744 -5.0338,-8.11837 -2.24289,-5.08714 -4.8268,-8.85064 -8.92711,-13.00231 -1.24291,-1.25849 -3.15599,-2.99111 -4.2509,-3.85041 l -1.99058,-1.56269 -0.009,-2.06292 c -0.0271,-6.35028 -1.9836,-10.44738 -5.91127,-12.37858 -1.19299,-0.58655 -1.75807,-0.67709 -4.2633,-0.68109 -2.53154,-0.004 -3.05135,0.0785 -4.21267,0.67179 -1.73506,0.88636 -3.24139,2.55317 -4.20542,4.65346 -0.57993,1.26345 -0.8862,1.65237 -1.19993,1.52394 -0.23165,-0.0948 -1.78227,-0.42295 -3.4463,-0.72915 -2.28399,-0.42029 -4.56853,-0.5844 -9.31985,-0.6687 l -6.29367,-0.11162 -1.54512,-1.36219 c -1.8584,-1.63909 -4.58704,-3.12698 -6.785124,-3.69951 -1.048914,-0.27323 -2.628245,-0.40839 -4.212146,-0.40618 z m -0.311609,4.80642 c 2.272318,-0.006 2.819109,0.089 4.195093,0.73381 4.341429,2.03454 6.973649,6.58191 6.751529,11.6644 l -0.0822,1.87638 -0.96273,-1.91048 c -1.26207,-2.50457 -3.812609,-5.1191 -5.945891,-6.09575 -2.261353,-1.03499 -4.382222,-1.03882 -6.481258,-0.007 -3.467731,1.70224 -5.175802,5.23544 -5.175912,10.70477 -2.7e-5,1.48072 -0.112077,2.69235 -0.24908,2.69235 -0.44791,0 -1.962512,-2.56755 -2.430343,-4.12017 -0.273071,-0.90622 -0.450283,-2.41232 -0.440283,-3.73672 0.03697,-4.90951 2.57918,-9.21868 6.496761,-11.01121 1.49253,-0.68293 2.045565,-0.78414 4.324284,-0.79014 z m 19.106332,5.38779 c 2.58057,0.0295 7.46846,0.51679 10.68461,1.09399 6.71339,1.20482 12.73731,3.50879 17.47542,6.68331 7.09337,4.75257 12.65401,11.25291 15.33292,17.92501 0.5428,1.35188 1.24671,2.89151 1.56476,3.42098 2.05731,3.42472 6.4796,8.15261 10.03246,10.72647 0.93965,0.68074 2.95947,1.93691 4.48862,2.79105 l 2.78019,1.55287 -1.0573,0.17932 c -1.64764,0.27986 -3.69938,1.53995 -4.5992,2.82464 -0.9384,1.33972 -1.25678,3.54373 -0.73898,5.11286 0.48698,1.47558 2.36515,3.41939 4.19768,4.34444 0.89813,0.45338 1.59364,0.93593 1.54564,1.07229 -0.18196,0.51702 -3.40001,2.79458 -5.08496,3.59874 -6.77589,3.23389 -17.46196,3.21547 -29.65814,-0.0506 -1.66397,-0.44565 -7.41913,-2.28513 -12.7894,-4.08761 -13.55743,-4.55039 -17.9961,-5.45024 -25.4217,-5.15369 -12.663385,0.50572 -22.780827,6.58869 -30.582629,18.38699 -1.901367,2.87537 -5.60586,9.86408 -5.60586,10.57559 0,0.21186 -0.106211,0.3855 -0.235644,0.3855 -0.732333,0 -0.479814,-8.53783 0.390157,-13.19247 0.459618,-2.45915 1.836046,-7.04022 2.510441,-8.35557 0.220496,-0.43006 0.353896,-0.82948 0.296106,-0.88728 -0.253997,-0.25399 -4.587366,3.50271 -5.681824,4.9258 -0.66428,0.86375 -1.237137,1.5367 -1.273307,1.495 -0.141468,-0.16294 0.672065,-5.9575 1.091923,-7.77731 1.679242,-7.27841 5.36248,-15.19958 9.678479,-20.81371 0.659863,-0.85834 1.199926,-1.63218 1.199926,-1.71928 0,-0.3032 -1.300932,-0.15475 -3.439583,0.39223 -1.183763,0.30275 -2.209487,0.49323 -2.279447,0.42323 -0.32272,-0.32273 2.744674,-4.62253 4.618839,-6.47454 3.534852,-3.49317 7.061908,-4.87437 13.133565,-5.14284 5.955992,-0.26334 11.123072,0.74049 17.223238,3.34605 4.8813,2.08487 8.18029,4.01572 17.31471,10.13374 8.26453,5.53545 13.23808,7.91323 20.26491,9.68778 8.25612,2.08505 17.52324,1.13004 19.77915,-2.03811 1.06958,-1.50208 0.88737,-1.82663 -3.50366,-6.2451 -2.62484,-2.64125 -5.99494,-6.504 -9.45885,-10.84172 -6.51423,-8.15731 -8.59027,-10.50983 -12.20701,-13.83016 -7.10492,-6.52264 -14.6779,-11.22781 -21.69067,-13.4767 l -2.76158,-0.88521 1.51257,-0.0899 c 0.26283,-0.0156 0.58477,-0.0202 0.95343,-0.016 z m 21.49481,27.47378 c 2.10829,-0.002 3.68143,1.51088 3.68143,3.5388 0,1.8085 -0.60893,2.21195 -1.09864,0.72812 -0.36982,-1.12056 -1.56531,-2.06758 -2.60966,-2.06758 -1.07365,0 -2.34298,1.36819 -2.34198,2.52336 0.001,1.1731 0.84847,2.55771 1.99058,3.25407 0.69662,0.42473 0.77423,0.54437 0.34674,0.53537 -0.79819,-0.0161 -2.35301,-0.90807 -3.27783,-1.88103 -0.63015,-0.66289 -0.82479,-1.15456 -0.90899,-2.29391 -0.18981,-2.56742 1.5295,-4.3352 4.21835,-4.3372 z" /></g></svg>
